# xmcd CD database file
#
# Track frame offsets:
#	150
#	19240
#	37947
#	55887
#	70390
#	84367
#	100427
#	115557
#	135045
#	153875
#	173822
#
# Disc length: 2633 seconds
#
# Revision: 1
# Processed by: cddbd v1.4PL0 Copyright (c) Steve Scherf et al.
# Submitted via: CDex 1.40Release
#
DISCID=7d0a470b
DTITLE=Gila Band - Kim Chee Cowboy
DYEAR=1993
DGENRE=Country
TTITLE0=Steak House
TTITLE1=Face of an Angel
TTITLE2=You Said Goodbye
TTITLE3=She´s My Witch
TTITLE4=Living on the Ground
TTITLE5=Me and the Cat
TTITLE6=Big Blue Ford
TTITLE7=Where I Kept the Key
TTITLE8=They Call the Wind Mariah
TTITLE9=Cantankerous
TTITLE10=In With the New
EXTD=YEAR: 1993 ID3G: 2
EXTT0=
EXTT1=
EXTT2=
EXTT3=
EXTT4=
EXTT5=
EXTT6=
EXTT7=
EXTT8=
EXTT9=
EXTT10=
PLAYORDER=
